<mxfile host="65bd71144e">
    <diagram id="utRbRscNnCeKuJcnw32u" name="Flowchart">
        <mxGraphModel dx="526" dy="580" grid="1" gridSize="10" guides="1" tooltips="1" connect="1" arrows="1" fold="1" page="1" pageScale="1" pageWidth="827" pageHeight="1169" math="0" shadow="0">
            <root>
                <mxCell id="BJ5wBZ9gHtuHweOJN8Lh-0"/>
                <mxCell id="BJ5wBZ9gHtuHweOJN8Lh-1" parent="BJ5wBZ9gHtuHweOJN8Lh-0"/>
                <mxCell id="BJ5wBZ9gHtuHweOJN8Lh-7" style="edgeStyle=orthogonalEdgeStyle;rounded=0;html=1;exitX=0.5;exitY=1;exitDx=0;exitDy=0;exitPerimeter=0;entryX=0.5;entryY=0;entryDx=0;entryDy=0;" parent="BJ5wBZ9gHtuHweOJN8Lh-1" source="BJ5wBZ9gHtuHweOJN8Lh-2" target="BJ5wBZ9gHtuHweOJN8Lh-3" edge="1">
                    <mxGeometry relative="1" as="geometry"/>
                </mxCell>
                <mxCell id="BJ5wBZ9gHtuHweOJN8Lh-2" value="Start" style="strokeWidth=2;html=1;shape=mxgraph.flowchart.start_1;whiteSpace=wrap;" parent="BJ5wBZ9gHtuHweOJN8Lh-1" vertex="1">
                    <mxGeometry x="170" y="130" width="100" height="60" as="geometry"/>
                </mxCell>
                <mxCell id="BJ5wBZ9gHtuHweOJN8Lh-8" style="edgeStyle=orthogonalEdgeStyle;rounded=0;html=1;exitX=0.5;exitY=1;exitDx=0;exitDy=0;entryX=0.5;entryY=0;entryDx=0;entryDy=0;" parent="BJ5wBZ9gHtuHweOJN8Lh-1" source="BJ5wBZ9gHtuHweOJN8Lh-3" target="BJ5wBZ9gHtuHweOJN8Lh-4" edge="1">
                    <mxGeometry relative="1" as="geometry"/>
                </mxCell>
                <mxCell id="BJ5wBZ9gHtuHweOJN8Lh-3" value="Get Radius" style="shape=parallelogram;html=1;strokeWidth=2;perimeter=parallelogramPerimeter;whiteSpace=wrap;rounded=1;arcSize=12;size=0.23;" parent="BJ5wBZ9gHtuHweOJN8Lh-1" vertex="1">
                    <mxGeometry x="170" y="210" width="100" height="60" as="geometry"/>
                </mxCell>
                <mxCell id="BJ5wBZ9gHtuHweOJN8Lh-9" style="edgeStyle=orthogonalEdgeStyle;rounded=0;html=1;exitX=0.5;exitY=1;exitDx=0;exitDy=0;entryX=0.5;entryY=0;entryDx=0;entryDy=0;" parent="BJ5wBZ9gHtuHweOJN8Lh-1" source="BJ5wBZ9gHtuHweOJN8Lh-4" target="BJ5wBZ9gHtuHweOJN8Lh-5" edge="1">
                    <mxGeometry relative="1" as="geometry"/>
                </mxCell>
                <mxCell id="BJ5wBZ9gHtuHweOJN8Lh-4" value="Calculate Circumference" style="rounded=1;whiteSpace=wrap;html=1;absoluteArcSize=1;arcSize=14;strokeWidth=2;" parent="BJ5wBZ9gHtuHweOJN8Lh-1" vertex="1">
                    <mxGeometry x="170" y="300" width="100" height="100" as="geometry"/>
                </mxCell>
                <mxCell id="BJ5wBZ9gHtuHweOJN8Lh-11" style="edgeStyle=orthogonalEdgeStyle;rounded=0;html=1;exitX=0.5;exitY=1;exitDx=0;exitDy=0;entryX=0.5;entryY=0;entryDx=0;entryDy=0;entryPerimeter=0;" parent="BJ5wBZ9gHtuHweOJN8Lh-1" source="BJ5wBZ9gHtuHweOJN8Lh-5" target="BJ5wBZ9gHtuHweOJN8Lh-6" edge="1">
                    <mxGeometry relative="1" as="geometry"/>
                </mxCell>
                <mxCell id="BJ5wBZ9gHtuHweOJN8Lh-5" value="Show Circumference" style="shape=parallelogram;html=1;strokeWidth=2;perimeter=parallelogramPerimeter;whiteSpace=wrap;rounded=1;arcSize=12;size=0.23;" parent="BJ5wBZ9gHtuHweOJN8Lh-1" vertex="1">
                    <mxGeometry x="140" y="430" width="160" height="70" as="geometry"/>
                </mxCell>
                <mxCell id="BJ5wBZ9gHtuHweOJN8Lh-6" value="Stop" style="strokeWidth=2;html=1;shape=mxgraph.flowchart.start_1;whiteSpace=wrap;" parent="BJ5wBZ9gHtuHweOJN8Lh-1" vertex="1">
                    <mxGeometry x="170" y="525" width="100" height="60" as="geometry"/>
                </mxCell>
            </root>
        </mxGraphModel>
    </diagram>
</mxfile>